<?xml version="1.0" encoding="UTF-8"?>
<svg width="18px" height="18px" fill="#ffffff" version="1.1" viewBox="0 0 512 512" xml:space="preserve" xmlns="http://www.w3.org/2000/svg">

	
		<path d="m452.44 305.3c-19.468-7.343-34.298-23.687-39.667-43.721-4.334-16.172-2.262-33.166 5.832-47.857 3.906-7.089 3.504-15.771-1.038-22.47-4.545-6.699-12.451-10.285-20.493-9.278-2.678 0.334-5.406 0.507-8.107 0.507-17.248 0-33.454-6.709-45.638-18.891-14.186-14.187-20.887-33.776-18.386-53.747 1.006-8.031-2.579-15.946-9.278-20.49-6.7-4.543-15.38-4.944-22.469-1.038-14.52 7.998-31.792 10.137-47.856 5.832-20.035-5.369-36.38-20.197-43.722-39.668-3.898-10.332-14.985-16.044-25.652-13.213-40.203 10.645-77.071 31.89-106.62 61.438-44.718 44.723-69.348 104.19-69.348 167.43 0 63.246 24.63 122.71 69.352 167.43 44.715 44.717 104.18 69.346 167.43 69.352h0.022c63.236 0 122.69-24.63 167.41-69.352 29.546-29.545 50.791-66.413 61.438-106.62 2.826-10.676-2.882-21.756-13.215-25.652zm-318.84-45.042c-4.004 4.004-9.557 6.301-15.226 6.301-5.667 0-11.208-2.298-15.225-6.301-4.004-4.018-6.301-9.557-6.301-15.225 0-5.654 2.297-11.209 6.301-15.213 4.018-4.018 9.557-6.313 15.225-6.313s11.222 2.296 15.226 6.313c4.004 4.004 6.3 9.543 6.3 15.213-1e-3 5.667-2.296 11.221-6.3 15.225zm57.403 100.45c-4.018 4.004-9.558 6.301-15.226 6.301-5.653 0-11.208-2.297-15.212-6.301-4.018-4.004-6.314-9.557-6.314-15.225 0-5.67 2.298-11.209 6.314-15.227 4.004-4.002 9.557-6.299 15.212-6.299 5.668 0 11.209 2.296 15.226 6.299 4.004 4.02 6.3 9.557 6.3 15.227-2e-3 5.667-2.296 11.221-6.3 15.225zm43.052-143.51c-4.004 4.004-9.558 6.301-15.226 6.301-5.667 0-11.221-2.298-15.212-6.301-4.018-4.004-6.314-9.557-6.314-15.225 0-5.669 2.298-11.209 6.314-15.213 4.004-4.018 9.543-6.313 15.212-6.313 5.668 0 11.222 2.296 15.226 6.313 4.004 4.004 6.3 9.543 6.3 15.213-2e-3 5.667-2.297 11.221-6.3 15.225zm57.402 186.56c-4.018 4.004-9.558 6.301-15.226 6.301-5.653 0-11.208-2.298-15.225-6.301-4.004-4.004-6.301-9.558-6.301-15.225 0-5.67 2.298-11.208 6.301-15.213 4.018-4.018 9.557-6.313 15.225-6.313s11.222 2.296 15.226 6.313c4.004 4.004 6.3 9.542 6.3 15.213-1e-3 5.667-2.296 11.221-6.3 15.225zm0-100.46c-4.018 4.004-9.558 6.301-15.226 6.301-5.653 0-11.208-2.298-15.225-6.301-4.004-4.004-6.301-9.558-6.301-15.225 0-5.67 2.298-11.209 6.301-15.213 4.018-4.018 9.572-6.313 15.225-6.313 5.668 0 11.209 2.296 15.226 6.313 4.004 4.004 6.3 9.542 6.3 15.213-1e-3 5.668-2.296 11.222-6.3 15.225z"/>
	


	
		<path d="m505.69 224.47c-4.004-4.004-9.545-6.301-15.213-6.301s-11.221 2.298-15.225 6.301c-4.004 4.018-6.301 9.556-6.301 15.225s2.298 11.222 6.301 15.226c4.004 4.004 9.556 6.3 15.225 6.3s11.209-2.296 15.213-6.3 6.313-9.557 6.313-15.226-2.309-11.209-6.313-15.225z"/>
	


	
		<path d="m272.3 11.377c-4.004-4.004-9.558-6.3-15.226-6.3-5.669 0-11.224 2.296-15.212 6.3-4.02 4.004-6.314 9.557-6.314 15.226 0 5.654 2.296 11.208 6.314 15.225 4.002 4.004 9.542 6.301 15.212 6.301s11.222-2.296 15.226-6.301c4.004-4.018 6.3-9.572 6.3-15.225 0-5.668-2.296-11.209-6.3-15.226z"/>
	


	
		<path d="m404.21 102.7c-3.989-4.004-9.543-6.3-15.213-6.3-5.683 0-11.221 2.296-15.225 6.3s-6.301 9.557-6.301 15.226c0 5.668 2.298 11.208 6.301 15.226 4.004 4.002 9.556 6.3 15.225 6.3s11.208-2.298 15.213-6.3c4.018-4.02 6.313-9.573 6.313-15.226 0-5.669-2.296-11.223-6.313-15.226z"/>
	

</svg>
