<svg shape-rendering="crispEdges" viewBox="0 -0.5 78 15" xmlns="http://www.w3.org/2000/svg"><path d="M18 0h5M0 1h4m6 0h4m4 0h1m1 0h1m1 0h1M0 2h1m2 0h8m2 0h1m4 0h2m1 0h2M0 3h2m2 0h1m4 0h1m2 0h2m4 0h1m1 0h1m1 0h1M0 4h1m2 0h8m2 0h29M0 5h1m1 0h3m4 0h3m1 0h2m4 0h1m1 0h1m11 0h1m1 0h1m5 0h1M0 6h3m1 0h1m1 0h14m1 0h21M4 7h1m1 0h4m1 0h2m1 0h1m3 0h2m3 0h3m2 0h3m2 0h1m1 0h2m3 0h1M4 8h1m3 0h2m1 0h2m1 0h1m1 0h2m1 0h1m1 0h2m1 0h1m1 0h2m1 0h1m1 0h3m1 0h1m1 0h2m1 0h1M4 9h1m1 0h4m1 0h2m1 0h1m1 0h2m1 0h1m1 0h2m1 0h1m1 0h2m1 0h1m1 0h1m1 0h1m1 0h1m1 0h2m1 0h1M4 10h1m1 0h4m1 0h2m1 0h1m3 0h2m1 0h2m1 0h1m1 0h2m1 0h1m1 0h1m1 0h1m1 0h1m1 0h2m1 0h2M4 11h1m4 0h2m3 0h1m1 0h4m1 0h3m1 0h1m2 0h2m1 0h1m1 0h2m1 0h1m2 0h1m1 0h1M4 12h11m1 0h1m2 0h3m1 0h9m2 0h8m-28 1h3" stroke="#262614"/><path d="M19 1h1m1 0h1m-2 1h1M5 3h4m10 0h1m1 0h1" stroke="#f3f588"/><path d="M23 1h1m-1 1h1m-1 1h1" stroke="#474727"/><path d="M1 2h2m8 0h2M2 3h2m6 0h2M1 4h1m10 0h1m34 1h1m8 0h1M46 6h1m2 0h1m13 0h1M51 7h1m1 0h1m6 0h1m3 0h1m5 0h1m4 0h1M46 8h2m2 0h1m5 0h1m6 0h1m2 0h1m4 0h1m1 0h1M53 9h1m4 0h1m9 0h1m-23 1h1m3 0h1m5 0h1m6 0h1m2 0h1m8 0h1m-24 1h1m4 0h1m2 0h1m9 0h1m2 0h1" stroke="#f9f5f5"/><path d="M14 2h1m-1 1h1M3 6h1M1 7h3" stroke="#402544"/><path d="M45 3h4m-5 1h2m2 0h2m5 0h3m4 0h3m1 0h3M44 5h1m4 0h2m4 0h1m1 0h1m4 0h1m1 0h3m1 0h2M44 6h1m2 0h2m1 0h6m1 0h6m1 0h2m3 0h8M44 7h2m1 0h2m1 0h1m3 0h1m3 0h1m3 0h1m3 0h1m1 0h1m3 0h2m2 0h1M45 8h1m3 0h1m1 0h2m1 0h2m1 0h1m1 0h4m1 0h2m1 0h1m1 0h2m1 0h1m1 0h3M45 9h1m1 0h3m1 0h2m1 0h2m1 0h1m1 0h4m1 0h2m1 0h1m1 0h1m1 0h3m1 0h2m-33 1h2m1 0h1m1 0h1m1 0h2m1 0h2m1 0h1m1 0h2m1 0h1m1 0h2m1 0h1m1 0h6m1 0h1m-33 1h1m1 0h2m1 0h2m2 0h1m1 0h2m1 0h1m2 0h2m1 0h3m1 0h1m3 0h1m2 0h2m-33 1h3m3 0h15m1 0h10" stroke="#281f1d"/><path d="M2 4h1m8 0h1M1 5h1m10 0h1" stroke="#dfd3e1"/><path d="M46 4h1m-1 1h1" stroke="#dbbb86"/><path d="M47 4h1m-3 2h1" stroke="#edc192"/><path d="M5 5h4M5 6h1" stroke="#fba0db"/><path d="M15 5h3m19 2h3m-4 1h1m2 0h1m-4 1h1m2 0h1m-4 1h1m2 0h1m-3 1h2m1 0h1" stroke="#c24cf2"/><path d="M18 5h1m3 0h1m11 0h1m-1 2h1m-1 1h1m-1 1h1m-1 1h1m0 1h1" stroke="#6c5ff3"/><path d="M20 5h1m8 0h3M20 6h1m-1 1h3m-3 1h1m2 0h1m-4 1h1m2 0h1m-4 1h1m2 0h1m-4 1h1m3 0h1" stroke="#d9f24d"/><path d="M23 5h3m5 2h2m-3 1h1m-1 1h1m-1 1h1m-1 1h1" stroke="#5de1e8"/><path d="M26 5h3m-3 2h2m-3 1h1m2 0h1m-4 1h1m2 0h1m-4 1h1m2 0h1m-3 1h2" stroke="#56eb5e"/><path d="M32 5h1m3 0h2M15 7h3m-3 1h1m2 0h1m-4 1h1m2 0h1m-4 1h3m-3 1h1m-1 1h1" stroke="#f29f40"/><path d="M38 5h3M10 7h1m2 0h1m-4 1h1m2 0h1m-4 1h1m2 0h1m-4 1h1m2 0h1m-3 1h3" stroke="#f74266"/><path d="M42 5h1m-1 1h1m-2 1h2m-2 1h1m-1 1h1m0 2h1m-1 1h1m-7 1h7" stroke="#44274f"/><path d="M45 5h1" stroke="#cda96c"/><path d="M48 5h1m14 0h1m-8 1h1M46 7h1m2 0h1m2 0h1m2 0h3m1 0h1m1 0h1m1 0h1m1 0h1m3 0h1m1 0h1m2 0h1M48 8h1m4 0h1m4 0h1m9 0h1M46 9h1m3 0h1m5 0h1m6 0h1m2 0h1m3 0h1m3 0h1m-22 1h1m4 0h1m2 0h1m6 0h1m-24 1h1m5 0h1m2 0h1m4 0h1m3 0h1m3 0h1m1 0h1m1 0h1m2 0h1" stroke="#e0caca"/><path d="M58 5h1m18 2h1m-1 1h1m-1 1h1m-30 1h1m28 0h1m-30 1h1m28 0h1m-31 1h2m16 0h1m10 0h2m-33 1h3m3 0h15m1 0h10" stroke="#443825"/><path d="M67 5h1m-2 1h3m-2 1h1" stroke="#85e391"/><path d="M5 7h1M5 8h3M5 9h1" stroke="#71ea84"/><path d="M32 9h1m-1 1h1m-1 1h1m-1 1h1m-3 1h3" stroke="#244243"/><path d="M5 10h1m-1 1h4" stroke="#e9dd55"/><path d="M17 12h2m-2 1h1m-3 1h3" stroke="#543f27"/><path d="M22 12h1m-3 1h3m1 0h1" stroke="#4d532c"/><path d="M5 13h5" stroke="#4c4926"/><path d="M10 13h4" stroke="#4e262e"/><path d="M25 13h5" stroke="#28492a"/><path d="M35 13h1" stroke="#413b77"/></svg>
