<svg xmlns="http://www.w3.org/2000/svg" shape-rendering="crispEdges" width="800" height="232" viewBox="0 -0.5 100 29"><path stroke="#352b1b" d="M69 0h3m-3 1h1m1 0h2m13 0h4M67 2h4m1 0h2m1 0h5m4 0h3m2 0h10M66 3h2m5 0h3m3 0h6m1 0h1m2 0h1m4 0h2m2 0h1M66 4h1m1 0h3m2 0h2m3 0h3m2 0h2m1 0h5m2 0h2m3 0h1M66 5h2m1 0h1m1 0h1m3 0h3m3 0h2m3 0h2m3 0h2m2 0h1m2 0h1M67 6h2m1 0h2m1 0h2m1 0h1m1 0h2m1 0h1m1 0h2m1 0h1m1 0h2m1 0h1m1 0h2m1 0h3M68 7h2m1 0h1m1 0h2m1 0h1m1 0h2m1 0h1m1 0h2m1 0h1m1 0h1m1 0h2m1 0h3m1 0h2M66 8h4m1 0h1m1 0h2m1 0h1m1 0h2m1 0h1m1 0h2m1 0h1m1 0h4m1 0h4m1 0h1M66 9h1m3 0h2m1 0h3m1 0h1m2 0h1m1 0h1m2 0h1m1 0h1m3 0h1m1 0h2m2 0h2m-33 1h8m1 0h23"/><path stroke="#2f222f" d="M1 1h5m17 0h3m21 0h3M0 2h2m3 0h2m16 0h1m1 0h1m21 0h1m1 0h1M0 3h1m1 0h3m1 0h11m1 0h6m1 0h11m1 0h11m1 0h6m1 0h8M0 4h1m1 0h1m1 0h4m2 0h2m2 0h1m1 0h3m3 0h2m1 0h2m3 0h1m2 0h1m1 0h3m3 0h1m3 0h2m3 0h1m3 0h3m2 0h1m1 0h1m1 0h1M0 5h1m1 0h1m3 0h1m1 0h2m1 0h1m1 0h1m1 0h1m1 0h2m1 0h2m1 0h1m1 0h1m1 0h2m1 0h1m1 0h1m1 0h1m1 0h1m1 0h2m1 0h1m1 0h2m1 0h2m1 0h1m1 0h2m1 0h2m1 0h3m1 0h1m1 0h1M0 6h1m1 0h1m1 0h3m1 0h2m1 0h1m1 0h1m1 0h1m1 0h2m1 0h2m1 0h1m1 0h1m1 0h1m1 0h2m1 0h1m1 0h1m1 0h1m1 0h1m1 0h2m1 0h2m1 0h2m1 0h1m1 0h2m1 0h2m1 0h1m1 0h1m1 0h1m1 0h1M0 7h1m1 0h3m1 0h1m1 0h2m1 0h1m1 0h1m1 0h1m1 0h2m3 0h2m1 0h1m1 0h4m1 0h1m1 0h1m1 0h1m1 0h4m1 0h2m1 0h2m1 0h1m1 0h2m1 0h2m1 0h1m1 0h2m1 0h2M0 8h2m3 0h3m2 0h2m1 0h4m1 0h1m1 0h4m1 0h2m3 0h1m1 0h4m1 0h1m3 0h1m1 0h3m1 0h2m1 0h1m2 0h1m1 0h1m1 0h1m1 0h2m1 0h1M1 9h5m1 0h7m2 0h3m1 0h1m2 0h10m2 0h9m1 0h13m1 0h1m1 0h2m-45 1h3m38 0h3"/><path stroke="#e39652" d="M70 1h1m0 1h1m-1 1h2m-2 1h1m-2 1h1"/><path stroke="#fa8afa" d="M2 2h1M1 7h1m1 1h2"/><path stroke="#c83ce5" d="M3 2h2m0 5h1M2 8h1"/><path stroke="#f9f5f5" d="M24 2h1m23 0h1M24 3h1m23 0h1M8 4h2m2 0h2m10 0h1m9 0h1m3 0h3m1 0h2m3 0h3m1 0h3M7 5h1m2 0h1m1 0h1m1 0h1m9 0h1m8 0h1m1 0h1m1 0h1m2 0h1m1 0h1m7 0h1m2 0h1M7 6h1m2 0h1m1 0h1m1 0h1m4 0h1m2 0h1m3 0h1m6 0h1m1 0h1m1 0h1m1 0h1m2 0h1m7 0h1m5 0h1m5 0h1M10 7h1m1 0h1m1 0h1m1 0h1m2 0h3m4 0h1m4 0h1m1 0h1m1 0h1m6 0h1m7 0h1m5 0h1m4 0h1M12 8h1m4 0h1m1 0h1m7 0h3m1 0h1m4 0h1m5 0h1m13 0h1m4 0h1M19 9h1m40 0h1m-49 7h2m8 0h2m-11 1h2m6 0h2m-11 1h1m10 0h1m34 1h1m8 0h1m-11 1h1m2 0h1m13 0h1m-13 1h1m1 0h1m6 0h1m3 0h1m5 0h1m4 0h1m-30 1h2m2 0h1m5 0h1m6 0h1m2 0h1m4 0h1m1 0h1m-21 1h1m4 0h1m9 0h1m-23 1h1m3 0h1m5 0h1m6 0h1m2 0h1m8 0h1m-24 1h1m4 0h1m2 0h1m9 0h1m2 0h1"/><path stroke="#5d2d5f" d="M26 2h1m23 0h1m13 2h1m-1 1h1m-7 1h1m5 0h1m-7 1h1m5 0h1m-7 1h1m4 0h2M14 9h2m5 0h2m10 0h2m9 0h1m13 0h1m4 0h1M8 10h7m2 0h1m3 0h1m2 0h10m2 0h9m1 0h4m4 0h5m3 0h2m-45 1h3m38 0h3"/><path stroke="#fff28d" d="M87 2h2m-2 1h2"/><path stroke="#7f2ed9" d="M1 3h1m3 0h1M1 4h1M1 5h1M1 6h1"/><path stroke="#ffebb0" d="M68 3h3m-4 1h1m4 0h1m-1 1h2m4 0h1m4 0h1m4 0h3m5 0h2M72 6h1m4 0h1m4 0h1m7 0h1m1 0h1m2 0h1M77 7h1m4 0h1m6 0h1m-8 1h1"/><path stroke="#f8f5f2" d="M76 3h3m13 0h1m3 0h2M75 4h1m5 0h1m9 0h1m3 0h1"/><path stroke="#ffdc8c" d="M85 3h1m-1 1h1M68 5h1m0 1h1m17 0h1M70 7h1m25 0h1M75 8h1m1 0h1m2 0h1m-5 1h1m1 0h2m1 0h1m1 0h2m1 0h1m3 0h1m1 0h1"/><path stroke="#ded9d5" d="M90 3h2m1 0h1M76 4h2m4 0h1m9 0h1m3 0h2"/><path stroke="#4b3d1e" d="M99 3h1m-1 1h1m-1 1h1m-1 1h1m-1 1h1m-1 1h1m-1 1h1m-26 1h1m23 0h2m-33 1h8m1 0h23"/><path stroke="#492468" d="M3 4h1M3 5h1m1 0h1M3 6h1m2 3h1m-5 1h5"/><path stroke="#dfd3e1" d="M15 4h1m3 0h3m5 0h3m1 0h2m11 0h1m12 0h2m1 0h1m1 0h1M16 5h1m2 0h1m2 0h1m3 0h1m2 0h1m1 0h1m13 0h1m2 0h1m7 0h1m3 0h1m1 0h1M16 6h1m7 0h1m3 0h1m2 0h1m13 0h1m2 0h1m4 0h1m6 0h1M7 7h1m16 0h1m12 0h1m7 0h1m2 0h1m4 0h1M8 8h2m14 0h1m13 0h3m5 0h1m2 0h1m1 0h2m1 0h1M13 18h1m8 0h1m-11 1h1m10 0h1"/><path stroke="#f3c169" d="M74 5h1m4 0h2m3 0h2m7 0h2M75 6h1m4 0h1m4 0h1M72 7h1m2 0h1m4 0h1m4 0h1m1 0h1m4 0h1M70 8h1m1 0h1m12 0h1m1 0h1m4 0h1m4 0h1M67 9h3m2 0h1m15 0h2m5 0h2"/><path stroke="#22142b" d="M50 10h4m-5 1h2m2 0h2m-6 1h1m1 0h2m1 0h1m-6 1h1m1 0h1m2 0h1m-6 1h2m2 0h3m-7 1h1m1 0h1m1 0h1m1 0h1m-7 1h1m1 0h2m1 0h2m-7 1h2m4 0h1m-3 1h2"/><path stroke="#f6d6ff" d="M51 11h2m-3 1h1m2 0h1m-2 1h2"/><path stroke="#382247" d="M55 12h1m-1 1h1m0 2h1m-1 1h1m-3 3h1"/><path stroke="#e0b2ff" d="M50 13h1m0 1h2m-3 1h1m1 0h1m0 1h1"/><path stroke="#262614" d="M29 14h5m-23 1h4m6 0h4m4 0h1m1 0h1m1 0h1m-23 1h1m2 0h8m2 0h1m4 0h2m1 0h2m-23 1h2m2 0h1m4 0h1m2 0h2m4 0h1m1 0h1m1 0h1m-23 1h1m2 0h8m2 0h29m-42 1h1m1 0h3m4 0h3m1 0h2m4 0h1m1 0h1m11 0h1m1 0h1m5 0h1m-42 1h3m1 0h1m1 0h14m1 0h21m-38 1h1m1 0h4m1 0h2m1 0h1m3 0h2m3 0h3m2 0h3m2 0h1m1 0h2m3 0h1m-37 1h1m3 0h2m1 0h2m1 0h1m1 0h2m1 0h1m1 0h2m1 0h1m1 0h2m1 0h1m1 0h3m1 0h1m1 0h2m1 0h1m-37 1h1m1 0h4m1 0h2m1 0h1m1 0h2m1 0h1m1 0h2m1 0h1m1 0h2m1 0h1m1 0h1m1 0h1m1 0h1m1 0h2m1 0h1m-37 1h1m1 0h4m1 0h2m1 0h1m3 0h2m1 0h2m1 0h1m1 0h2m1 0h1m1 0h1m1 0h1m1 0h1m1 0h2m1 0h2m-38 1h1m4 0h2m3 0h1m1 0h4m1 0h3m1 0h1m2 0h2m1 0h1m1 0h2m1 0h1m2 0h1m1 0h1m-38 1h11m1 0h1m2 0h3m1 0h9m2 0h8m-28 1h3"/><path stroke="#f3f588" d="M30 15h1m1 0h1m-2 1h1m-16 1h4m10 0h1m1 0h1"/><path stroke="#474727" d="M34 15h1m-1 1h1m-1 1h1"/><path stroke="#c489ec" d="M54 15h1m-5 1h1m0 1h4"/><path stroke="#402544" d="M25 16h1m-1 1h1m-12 3h1m-3 1h3"/><path stroke="#281f1d" d="M56 17h4m-5 1h2m2 0h2m5 0h3m4 0h3m1 0h3m-25 1h1m4 0h2m4 0h1m1 0h1m4 0h1m1 0h3m1 0h2m-26 1h1m2 0h2m1 0h6m1 0h6m1 0h2m3 0h8m-33 1h2m1 0h2m1 0h1m3 0h1m3 0h1m3 0h1m3 0h1m1 0h1m3 0h2m2 0h1m-32 1h1m3 0h1m1 0h2m1 0h2m1 0h1m1 0h4m1 0h2m1 0h1m1 0h2m1 0h1m1 0h3m-32 1h1m1 0h3m1 0h2m1 0h2m1 0h1m1 0h4m1 0h2m1 0h1m1 0h1m1 0h3m1 0h2m-33 1h2m1 0h1m1 0h1m1 0h2m1 0h2m1 0h1m1 0h2m1 0h1m1 0h2m1 0h1m1 0h6m1 0h1m-33 1h1m1 0h2m1 0h2m2 0h1m1 0h2m1 0h1m2 0h2m1 0h3m1 0h1m3 0h1m2 0h2m-33 1h3m3 0h15m1 0h10"/><path stroke="#dbbb86" d="M57 18h1m-1 1h1"/><path stroke="#edc192" d="M58 18h1m-3 2h1"/><path stroke="#fba0db" d="M16 19h4m-4 1h1"/><path stroke="#c24cf2" d="M26 19h3m19 2h3m-4 1h1m2 0h1m-4 1h1m2 0h1m-4 1h1m2 0h1m-3 1h2m1 0h1"/><path stroke="#6c5ff3" d="M29 19h1m3 0h1m11 0h1m-1 2h1m-1 1h1m-1 1h1m-1 1h1m0 1h1"/><path stroke="#d9f24d" d="M31 19h1m8 0h3m-12 1h1m-1 1h3m-3 1h1m2 0h1m-4 1h1m2 0h1m-4 1h1m2 0h1m-4 1h1m3 0h1"/><path stroke="#5de1e8" d="M34 19h3m5 2h2m-3 1h1m-1 1h1m-1 1h1m-1 1h1"/><path stroke="#56eb5e" d="M37 19h3m-3 2h2m-3 1h1m2 0h1m-4 1h1m2 0h1m-4 1h1m2 0h1m-3 1h2"/><path stroke="#f29f40" d="M43 19h1m3 0h2m-23 2h3m-3 1h1m2 0h1m-4 1h1m2 0h1m-4 1h3m-3 1h1m-1 1h1"/><path stroke="#f74266" d="M49 19h3m-31 2h1m2 0h1m-4 1h1m2 0h1m-4 1h1m2 0h1m-4 1h1m2 0h1m-3 1h3"/><path stroke="#44274f" d="M53 19h1m-1 1h1m-2 1h2m-2 1h1m-1 1h1m0 2h1m-1 1h1m-7 1h7"/><path stroke="#cda96c" d="M56 19h1"/><path stroke="#e0caca" d="M59 19h1m14 0h1m-8 1h1m-11 1h1m2 0h1m2 0h1m2 0h3m1 0h1m1 0h1m1 0h1m1 0h1m3 0h1m1 0h1m2 0h1m-27 1h1m4 0h1m4 0h1m9 0h1m-23 1h1m3 0h1m5 0h1m6 0h1m2 0h1m3 0h1m3 0h1m-22 1h1m4 0h1m2 0h1m6 0h1m-24 1h1m5 0h1m2 0h1m4 0h1m3 0h1m3 0h1m1 0h1m1 0h1m2 0h1"/><path stroke="#443825" d="M69 19h1m18 2h1m-1 1h1m-1 1h1m-30 1h1m28 0h1m-30 1h1m28 0h1m-31 1h2m16 0h1m10 0h2m-33 1h3m3 0h15m1 0h10"/><path stroke="#85e391" d="M78 19h1m-2 1h3m-2 1h1"/><path stroke="#71ea84" d="M16 21h1m-1 1h3m-3 1h1"/><path stroke="#244243" d="M43 23h1m-1 1h1m-1 1h1m-1 1h1m-3 1h3"/><path stroke="#e9dd55" d="M16 24h1m-1 1h4"/><path stroke="#543f27" d="M28 26h2m-2 1h1m-3 1h3"/><path stroke="#4d532c" d="M33 26h1m-3 1h3m1 0h1"/><path stroke="#4c4926" d="M16 27h5"/><path stroke="#4e262e" d="M21 27h4"/><path stroke="#28492a" d="M36 27h5"/><path stroke="#413b77" d="M46 27h1"/></svg>
